<?xml version="1.0" encoding="utf-8"?>
<!-- Generator: Adobe Illustrator 19.2.1, SVG Export Plug-In . SVG Version: 6.00 Build 0)  -->
<svg version="1.1" id="Layer_1" xmlns="http://www.w3.org/2000/svg" xmlns:xlink="http://www.w3.org/1999/xlink" x="0px" y="0px"
	 viewBox="0 0 640 138.2" style="enable-background:new 0 0 640 138.2;" xml:space="preserve">
<g id="Eirjbe_1_">
	<g>
		<path d="M358.8,4c0.3,1,0.5,2,0.8,3c1,3.2,2.1,6.4,3.2,9.6c1.8,5.4,3.6,10.8,5.4,16.2c1,2.9,2,5.7,2.9,8.6
			c1.1,3.3,2.1,6.6,3.2,9.8c1.5,4.6,3,9.2,4.6,13.8c1.5,4.5,3,9,4.5,13.5c1.8,5.2,3.5,10.4,5.3,15.7c1.1,3.3,2.1,6.6,3.2,9.9
			c1.5,4.5,3,9,4.5,13.6c1.5,4.6,3,9.1,4.5,13.7c0.2,0.5,0.4,1,0.6,1.6c-0.5,0-1,0-1.4,0c-27.1,0-54.1,0-81.2,0
			c-1.6,0-1.6,0-1.9-1.4c-0.9-3.6-1.7-7.3-2.6-11c-0.8-3.4-1.7-6.7-2.5-10.1c-0.7-2.8-1.3-5.7-2-8.6c-0.3-1.2-0.7-2.4-1-3.7
			c-0.4,0-0.8,0-1.2,0c-24.6,0-49.1,0-73.7,0c-0.9,0-1.5,0.2-2.1,0.8c-5.3,5.2-10.5,10.4-15.9,15.6c-1.3,1.3-2.9,2.4-4.2,3.7
			c-1.8,1.7-3.8,3-5.8,4.3c-3.4,2.2-7.1,4-10.9,5.6c-3.3,1.3-6.7,2.2-10.1,3c-1.8,0.4-3.8,0.6-5.6,1c-1.7,0.3-3.5,0.3-5.2,0.6
			c-1.8,0.2-3.5,0.2-5.2,0.2c-30.7,0-61.4,0-92.1,0c-21.2,0-42.5,0-63.7,0c-4,0-8,0-12.2,0c0.4-1.3,0.8-2.5,1.2-3.7
			c1.4-4.1,2.7-8.2,4.1-12.3c0.7-2.2,1.5-4.4,2.2-6.6c1.6-4.7,3.2-9.3,4.8-14c1.4-4,2.7-8,4-12c1.3-3.9,2.7-7.8,4.1-11.7
			c1.7-5.1,3.4-10.3,5.2-15.4c1.8-5.3,3.6-10.5,5.4-15.8c1.6-4.6,3.1-9.3,4.7-13.9c1.6-4.6,3.1-9.2,4.7-13.8
			c1.1-3.1,2.1-6.2,3.2-9.3c0.1-0.2,0-0.3,0.1-0.5c54.1,0,108.1,0,162.2,0c0.4,0.7-0.3,1-0.6,1.5c-1.9,3-4.4,5.6-6.8,8.1
			c-1.9,1.9-4,3.6-6.1,5.3c-3.2,2.6-6.7,4.6-10.7,5.7c-1.1,0.3-2.2,0.6-3.3,0.6c-24.8,0-49.5,0-74.3,0c-0.3,0-0.6,0.1-1,0.1
			c-3.5,10.4-6.9,20.7-10.4,31.2c24.2,0,48.3,0,72.6,0c-0.3,0.5-0.4,0.8-0.6,1c-2.1,2.8-4.5,5.5-7.1,7.9c-1.2,1.2-2.4,2.4-3.8,3.5
			c-3.6,2.7-7.4,5.1-11.9,6.3c-1.3,0.4-2.6,0.8-3.9,1c-2.1,0.4-4.2,0.7-6.4,0.7c-15,0-30,0-45,0c-0.5,0-1.1,0-1.6,0
			c-3.7,11.7-7.3,23.2-11.1,35c0.6,0,1.1,0,1.6,0c21.5,0,43,0,64.5,0c3.4,0,6.8,0,10.2,0.6c1.6,0.3,3.2,0.8,4.7,1.5
			c2.7,1.2,4.9,3.2,6.6,5.6c2.1,2.9,3.3,6.2,4,9.6c0.2,0.9,0.3,1.8,0.4,2.8c0.3-0.3,0.6-0.4,0.7-0.6c1.1-1.1,2.1-2.1,3.2-3.2
			c4-4,8.1-8,12.1-12.1c1.8-1.8,3.5-3.8,5.4-5.6c2.6-2.6,5.2-5.1,7.8-7.7c3-3,5.9-5.9,8.9-8.9c1.2-1.2,2.3-2.3,3.4-3.5
			c1.5-1.6,3-3.3,4.5-4.8c2.2-2.2,4.4-4.4,6.6-6.6c0.9-0.9,1.8-1.8,2.7-2.7c2.1-2.1,4.2-4.1,6.2-6.2c1.7-1.7,3.3-3.5,5-5.2
			c4.3-4.4,8.7-8.7,13-13.1c1.9-2,3.8-4,5.7-6c7.1-7.4,14.4-14.6,21.6-21.9c2.5-2.5,5-5,7.5-7.5c4.2-4.2,8.4-8.4,12.6-12.6
			C315.4,4,337.1,4,358.8,4z M304.4,76.7c-0.1-0.5-0.2-1-0.3-1.4c-0.5-2-1-4.1-1.6-6.1c-0.8-3-1.5-6.1-2.3-9.1
			c-0.8-3-1.5-6.1-2.3-9.1c-0.8-3.1-1.5-6.1-2.3-9.2c-0.5-1.9-0.9-3.8-1.4-5.8c-0.2-0.6-0.4-1.2-0.6-1.9c-0.6,0.7-1,1.2-1.4,1.7
			c-1.1,1.2-2.2,2.4-3.3,3.6c-2.7,2.9-5.5,5.8-8.2,8.8c-1.6,1.7-3.2,3.3-4.7,5c-0.6,0.6-1.2,1.2-1.8,1.9c-1.7,1.8-3.3,3.7-5,5.6
			c-2.1,2.2-4.2,4.4-6.3,6.6c-0.1,0.2-0.3,0.3-0.4,0.5c-1.6,1.8-3.3,3.6-4.9,5.4c-0.8,0.9-1.7,1.7-2.6,2.6c-0.2,0.2-0.4,0.5-0.8,1
			C271.1,76.7,287.7,76.7,304.4,76.7z"/>
		<path d="M606.2,4c-0.2,0.4-0.2,0.9-0.5,1.2c-1.1,1.4-2.3,2.8-3.4,4.3c-1.2,1.6-2.7,3.1-4.2,4.4c-1.9,1.7-3.9,3.3-5.9,4.8
			c-1.4,1.1-2.8,2-4.3,2.9c-2.6,1.6-5.3,2.8-8.2,3.5c-0.3,0.1-0.6,0-0.9,0c-23.8,0-47.7,0-71.5,0c-2.7,0-5.2,0.6-7.5,2.3
			c-1.5,1.1-2.4,2.5-3.2,4.1c-1.1,2.1-1.7,4.4-2.5,6.6c-0.7,2-1.4,4.1-2.1,6.1c-0.3,1.1-0.3,2.3,0.1,3.4c0.2,0.9,0.8,1.3,1.5,1.5
			c0.7,0.2,1.5,0.4,2.3,0.4c20.4,0,40.9,0,61.3,0c2.1,0,4.3,0,6.4,0.3c3.8,0.5,7.5,1,11.2,2.2c2.8,0.9,5.5,2.2,7.9,4
			c2.8,2.2,4.9,4.9,5.9,8.4c0.6,1.8,0.9,3.7,0.9,5.6c0,2.4-0.1,4.8-0.6,7.2c-0.5,2.2-1.3,4.4-2,6.6c-0.7,2-1.5,4-2.2,6.1
			c-1.1,3.1-2.2,6.3-3.3,9.4c-0.8,2.2-1.7,4.3-2.4,6.5c-0.8,2.8-2.2,5.4-3.5,8c-0.5,1-1.2,1.9-1.9,2.8c-1,1.2-1.9,2.5-3,3.6
			c-1.3,1.3-2.6,2.4-4.1,3.5c-1.8,1.3-3.6,2.5-5.6,3.5c-2,1-4.1,1.9-6.2,2.5c-2.8,0.9-5.7,1.6-8.7,2.2c-1.8,0.4-3.6,0.4-5.4,0.6
			c-8.9,0.6-17.7,0.1-26.6,0.3c-0.7,0-1.4,0-2.1,0c-35,0-70.1,0-105.1,0c-0.2,0-0.4,0-0.7,0c0.4-1.3,1.2-2.2,1.9-3.3
			c1.2-1.9,2.6-3.6,4.1-5.3c2-2.1,3.9-4.3,6.1-6.3c2.6-2.4,5.6-4.4,8.8-5.8c1.5-0.6,3.2-0.9,4.9-0.9c24.4,0,48.8,0,73.2,0
			c2.9,0,5.8-0.7,8.3-2.3c2.2-1.4,3.7-3.3,4.5-5.8c1-2.9,2-5.9,3.1-8.8c0.4-1.1,0.5-2.3,0.4-3.4c-0.2-2.4-2.4-3.8-4.2-4.2
			c-1.8-0.4-3.7-0.3-5.5-0.3c-23.4,0-46.8,0-70.1,0c-2.5,0-5-0.4-7.5-1.1c-1.7-0.5-3.4-1.1-4.9-2c-2.6-1.5-4.5-3.6-5.7-6.5
			c-1.2-3-1.3-6-1-9.1c0.4-4.3,1.5-8.5,3-12.5c1-2.7,1.9-5.5,2.9-8.2c1.5-4.2,3-8.5,4.6-12.7c1.1-2.9,2.1-5.8,3.7-8.4
			c1.2-2,2.5-4,3.9-5.9c1-1.3,2.1-2.6,3.2-3.8c2.2-2.4,4.8-4.3,7.6-6c3.7-2.3,7.6-4,11.8-4.9c1.8-0.4,3.5-0.8,5.3-1.1
			c0.7-0.1,1.3,0,2,0c0.3,0,0.6-0.2,0.9-0.2C516.4,4,561.3,4,606.2,4z"/>
		<path d="M639.4,15.1c-0.2,1.2-0.9,2.1-1.6,3c-0.4,0.6-1.1,1.1-1.8,1.5c-1.3,0.9-2.7,1.6-4.4,1.4c-0.9-0.1-1.8,0-2.6-0.2
			c-3-0.6-4.9-2.5-6-5.3c-0.3-0.6-0.3-1.4-0.4-2.1c-0.1-0.4,0-0.8,0-1.3c-0.3-2.2,0.7-3.9,1.9-5.5c0.8-1.1,2-1.8,3.3-2.3
			c0.3-0.1,0.7-0.3,1-0.4c1.6,0,3.2,0,4.8,0c0.1,0.1,0.2,0.2,0.3,0.2c2.7,1,4.6,2.8,5.5,5.6C639.4,11.6,639.4,13.3,639.4,15.1z
			 M631.1,5.5c-4-0.3-7.1,3.7-7.1,6.8c0,4.1,3.2,7.2,7,7.2c3.9,0,6.8-3.3,7-6.4C638.5,8.6,634.8,5.3,631.1,5.5z"/>
		<path d="M633.9,12.9c1.3,1.3,1.3,2.8,1.1,4.5c-0.5,0-1,0-1.5,0c-0.6-0.5-0.4-1.2-0.4-1.8c0-1.3-0.5-1.8-1.8-1.8c-0.5,0-1,0-1.5,0
			c-0.1,0-0.1,0.1-0.3,0.2c0,1.1,0,2.2,0,3.4c-0.6,0-1.1,0-1.6,0c-0.3-1-0.4-6.7-0.1-9.6c0.3,0,0.5-0.1,0.8-0.1c1.2,0,2.4,0,3.6,0
			c2-0.1,3.4,1.4,2.9,3.7C634.9,11.9,634.3,12.3,633.9,12.9z M629.5,9.3c0,1,0,1.9,0,2.8c1.1,0.4,2,0.1,2.9-0.2
			c0.6-0.2,0.7-0.8,0.7-1.5c0-0.6-0.3-0.7-0.8-0.9C631.4,9.1,630.5,9.2,629.5,9.3z"/>
	</g>
</g>
</svg>
