<?xml version="1.0" encoding="utf-8"?>
<!-- Generator: Adobe Illustrator 21.0.2, SVG Export Plug-In . SVG Version: 6.00 Build 0)  -->
<svg version="1.1" id="myoplex-eas-logo" xmlns="http://www.w3.org/2000/svg" xmlns:xlink="http://www.w3.org/1999/xlink" x="0px"
	 y="0px" viewBox="0 0 640 138.2" style="enable-background:new 0 0 640 138.2;" xml:space="preserve">
<g>
	<path d="M496.5,36c7.7,0,15.5,0,23.2,0c0.4,0,0.9,0,1.3-0.1c0.4-0.1,0.9-0.1,1.3-0.2c0.5-0.1,1-0.2,1.4-0.3
		c0.9-0.2,1.7-0.4,2.5-0.8c1-0.4,1.9-0.9,2.7-1.4c0.5-0.3,1-0.7,1.5-1.1c0.3-0.3,0.7-0.6,1.1-0.9c1.4-1.3,2.7-2.6,4-3.9
		c0.2-0.2,0.3-0.2,0.5-0.2c6.2,0,12.4,0,18.6,0c0.1,0,0.2,0,0.3,0c0.1,0.3,0.2,0.6,0.3,0.9c0.2,0.7,0.3,1.5,0.5,2.2
		c0.2,0.9,0.4,1.7,0.6,2.5c0.2,0.9,0.4,1.9,0.7,2.8c0.1,0.4,0.1,0.4,0.5,0.4c6.8,0,13.6,0,20.5,0c0.1,0,0.2,0,0.4,0
		c-0.1-0.2-0.1-0.3-0.2-0.4c-0.4-1.2-0.8-2.3-1.1-3.5s-0.8-2.3-1.1-3.4c-0.3-0.8-0.5-1.7-0.8-2.5c-0.5-1.3-0.9-2.6-1.3-4
		c-0.4-1.1-0.8-2.3-1.1-3.4c-0.4-1.2-0.8-2.3-1.2-3.5c-0.3-0.8-0.5-1.6-0.8-2.5c-0.2-0.7-0.5-1.4-0.7-2.2c-0.5-1.4-0.9-2.7-1.4-4.1
		c-0.3-0.8-0.6-1.6-0.8-2.4c-0.1-0.3-0.1-0.5-0.2-0.8c-5.5,0-10.9,0-16.4-0.1c-1.1,1.1-2.1,2.1-3.2,3.2c-0.6,0.6-1.3,1.3-1.9,1.9
		c-1.8,1.8-3.7,3.7-5.4,5.5c-0.5,0.5-1,1-1.4,1.5c-1.1,1.1-2.2,2.2-3.3,3.3c-0.4,0.4-0.8,0.9-1.3,1.3c-0.5,0.5-1,1-1.6,1.6
		c-0.2,0.2-0.5,0.5-0.7,0.7c-0.6,0.6-1.1,1.1-1.7,1.7c-0.4,0.4-0.8,0.8-1.1,1.2c-0.3,0.3-0.6,0.6-0.9,0.9c-0.8,0.8-1.5,1.5-2.2,2.2
		s-1.3,1.3-2,1.9c-0.5,0.5-0.9,1-1.4,1.4c-1,1-2,2-3.1,3.1c-0.3,0.3-0.5,0.5-0.8,0.8c0,0.1-0.1,0.1-0.2,0.2c0-0.3-0.1-0.5-0.1-0.7
		c-0.2-0.9-0.5-1.7-1-2.4c-0.4-0.6-1-1.1-1.7-1.4c-0.4-0.2-0.8-0.3-1.2-0.4c-0.9-0.2-1.7-0.2-2.6-0.2c-5.4,0-10.8,0-16.3,0
		c-0.1,0-0.3,0-0.4,0c1-3,1.9-5.9,2.8-8.8c0.1,0,0.3,0,0.4,0c3.8,0,7.6,0,11.4,0c0.6,0,1.1-0.1,1.6-0.2c0.3-0.1,0.7-0.2,1-0.3
		c1.1-0.3,2.1-0.9,3-1.6c0.4-0.3,0.7-0.6,1-0.9c0.7-0.6,1.3-1.3,1.8-2c0.1-0.1,0.1-0.1,0.2-0.3c-6.1,0-12.2,0-18.3,0
		c0.9-2.6,1.7-5.2,2.6-7.9c0.1,0,0.2,0,0.3,0c6.3,0,12.5,0,18.7,0c0.3,0,0.6-0.1,0.8-0.2c1-0.3,1.9-0.8,2.7-1.4
		c0.5-0.4,1.1-0.9,1.5-1.3c0.6-0.6,1.2-1.3,1.7-2c0.1-0.1,0.3-0.2,0.2-0.4c-13.6,0-27.3,0-40.9,0c0,0.1,0,0.1,0,0.1
		c-0.3,0.8-0.5,1.6-0.8,2.3c-0.4,1.2-0.8,2.3-1.2,3.5c-0.4,1.2-0.8,2.3-1.2,3.5c-0.5,1.3-0.9,2.6-1.4,4c-0.5,1.3-0.9,2.6-1.3,3.9
		c-0.4,1-0.7,2-1,3s-0.7,2-1,3c-0.4,1.2-0.8,2.3-1.2,3.5c-0.2,0.6-0.4,1.1-0.6,1.7c-0.4,1-0.7,2.1-1,3.1c-0.1,0.3-0.2,0.6-0.3,0.9
		c1.1,0,2.1,0,3.1,0C485.7,36,491.1,36,496.5,36z M541.4,21.6c0.2-0.2,0.5-0.4,0.7-0.7c0.4-0.5,0.8-0.9,1.2-1.4
		c0-0.1,0.1-0.1,0.1-0.1c0.5-0.6,1.1-1.1,1.6-1.7c0.4-0.5,0.8-1,1.3-1.4c0.2-0.2,0.3-0.3,0.5-0.5c0.4-0.4,0.8-0.8,1.2-1.3
		c0.7-0.8,1.4-1.5,2.1-2.2c0.3-0.3,0.6-0.6,0.8-0.9c0.1-0.1,0.2-0.3,0.4-0.4c0.1,0.2,0.1,0.3,0.2,0.5c0.1,0.5,0.2,1,0.4,1.5
		c0.2,0.8,0.4,1.5,0.6,2.3c0.2,0.8,0.4,1.5,0.6,2.3s0.4,1.5,0.6,2.3c0.2,0.5,0.3,1,0.4,1.5c0,0.1,0.1,0.2,0.1,0.4
		c-4.2,0-8.4,0-12.7,0C541.3,21.7,541.3,21.6,541.4,21.6z"/>
	<path d="M595.7,3.5c-0.2,0-0.3,0-0.5,0c-0.5,0.1-0.9,0.2-1.3,0.3c-1.1,0.2-2,0.7-3,1.2c-0.7,0.4-1.4,0.9-1.9,1.5
		c-0.3,0.3-0.6,0.6-0.8,1c-0.4,0.5-0.7,1-1,1.5c-0.4,0.7-0.7,1.4-0.9,2.1c-0.4,1.1-0.8,2.1-1.2,3.2c-0.3,0.7-0.5,1.4-0.7,2.1
		c-0.4,1-0.7,2.1-0.8,3.2c-0.1,0.8-0.1,1.5,0.3,2.3c0.3,0.7,0.8,1.3,1.4,1.6c0.4,0.2,0.8,0.4,1.2,0.5c0.6,0.2,1.3,0.3,1.9,0.3
		c5.9,0,11.8,0,17.7,0c0.5,0,0.9,0,1.4,0.1s1,0.5,1.1,1.1c0,0.3,0,0.6-0.1,0.9c-0.3,0.7-0.5,1.5-0.8,2.2c-0.2,0.6-0.6,1.1-1.1,1.5
		c-0.6,0.4-1.4,0.6-2.1,0.6c-6.2,0-12.3,0-18.5,0c-0.4,0-0.9,0.1-1.2,0.2c-0.8,0.4-1.6,0.9-2.2,1.5c-0.6,0.5-1,1.1-1.5,1.6
		c-0.4,0.4-0.7,0.9-1,1.3c-0.2,0.3-0.4,0.5-0.5,0.8c0.1,0,0.1,0,0.2,0c8.8,0,17.7,0,26.5,0c0.2,0,0.4,0,0.5,0
		c2.2-0.1,4.5,0.1,6.7-0.1c0.5-0.1,0.9-0.1,1.4-0.2c0.8-0.2,1.5-0.3,2.2-0.6c0.5-0.2,1.1-0.4,1.6-0.6c0.5-0.3,1-0.6,1.4-0.9
		c0.4-0.3,0.7-0.6,1-0.9c0.3-0.3,0.5-0.6,0.8-0.9c0.2-0.2,0.4-0.5,0.5-0.7c0.3-0.7,0.7-1.3,0.9-2c0.2-0.6,0.4-1.1,0.6-1.6
		c0.3-0.8,0.6-1.6,0.8-2.4c0.2-0.5,0.4-1,0.6-1.5c0.2-0.6,0.4-1.1,0.5-1.7s0.2-1.2,0.2-1.8c0-0.5-0.1-1-0.2-1.4
		c-0.3-0.9-0.8-1.6-1.5-2.1c-0.6-0.5-1.3-0.8-2-1c-0.9-0.3-1.9-0.4-2.8-0.6c-0.5-0.1-1.1-0.1-1.6-0.1c-5.1,0-10.3,0-15.5,0
		c-0.2,0-0.4-0.1-0.6-0.1c-0.2-0.1-0.3-0.2-0.4-0.4c-0.1-0.3-0.1-0.6,0-0.9c0.2-0.5,0.4-1,0.5-1.5c0.2-0.6,0.4-1.1,0.6-1.7
		c0.2-0.4,0.4-0.8,0.8-1c0.6-0.4,1.2-0.6,1.9-0.6c6,0,12,0,18,0c0.1,0,0.2,0,0.2,0c0.7-0.2,1.4-0.5,2.1-0.9c0.4-0.2,0.7-0.5,1.1-0.7
		c0.5-0.4,1-0.8,1.5-1.2c0.4-0.3,0.8-0.7,1.1-1.1s0.6-0.7,0.9-1.1c0.1-0.1,0.1-0.2,0.1-0.3c-11.3,0-22.7,0-34,0
		C595.9,3.5,595.8,3.5,595.7,3.5z"/>
	<path d="M636.9,3.5L636.9,3.5c-0.5-0.1-0.9-0.1-1.3-0.1c-0.1,0-0.2,0.1-0.3,0.1c-0.3,0.1-0.6,0.3-0.8,0.6c-0.3,0.4-0.6,0.8-0.5,1.4
		c0,0.1,0,0.2,0,0.3c0,0.2,0,0.4,0.1,0.5c0.3,0.7,0.8,1.2,1.5,1.3c0.2,0.1,0.4,0,0.7,0.1c0.4,0.1,0.8-0.1,1.1-0.4
		c0.2-0.1,0.4-0.2,0.5-0.4c0.2-0.2,0.4-0.5,0.4-0.8c0-0.5,0-0.9,0-1.4C638.1,4.2,637.6,3.7,636.9,3.5z M636.2,7.4
		c-1,0-1.8-0.8-1.8-1.8c0-0.8,0.8-1.8,1.8-1.7c0.9-0.1,1.9,0.8,1.7,1.9C637.9,6.5,637.2,7.4,636.2,7.4z"/>
	<path d="M636.5,4.4c-0.3,0-0.6,0-0.9,0c-0.1,0-0.1,0-0.2,0c-0.1,0.7-0.1,2.2,0,2.4c0.1,0,0.3,0,0.4,0c0-0.3,0-0.6,0-0.9
		c0.1,0,0.1-0.1,0.1-0.1c0.1,0,0.3,0,0.4,0c0.3,0,0.5,0.1,0.5,0.5c0,0.2-0.1,0.3,0.1,0.5c0.1,0,0.3,0,0.4,0c0.1-0.4,0.1-0.8-0.3-1.1
		c0.1-0.2,0.3-0.3,0.3-0.4C637.4,4.7,637,4.4,636.5,4.4z M636.6,5.4c-0.2,0.1-0.5,0.2-0.7,0.1c0-0.2,0-0.5,0-0.7
		c0.3,0,0.5-0.1,0.7,0.1c0.1,0.1,0.2,0.1,0.2,0.2C636.7,5.2,636.7,5.4,636.6,5.4z"/>
	<path d="M121,54.7c-12.2,0-24.4,0-36.5,0c-0.2,0-0.4,0-0.7,0c-0.6,0-1,0.2-1.2,0.9c-2,5.7-4,11.4-6,17c-2.1,6.1-4.2,12.1-6.4,18.2
		c-2.5,7-5,14-7.5,21.1c-0.1,0.3-0.3,0.5-0.5,0.8c-0.2-0.3-0.5-0.5-0.6-0.8c-1.3-3.6-2.5-7.2-3.7-10.9c-3.2-9.1-6.3-18.2-9.5-27.3
		c-2-5.9-4.1-11.8-6.1-17.7c-0.3-1-0.8-1.3-1.8-1.3c-12.3,0-24.6,0-37,0c-1.4,0-1.5,0-1.5,1.5c0,25.3,0,50.6,0,75.9
		c0,1,0.2,1.3,1.3,1.3c6.5,0,13.1,0,19.6,0c1.5,0,1.5,0,1.5-1.5c0-19,0-38,0-57c0-0.4,0-0.8,0.1-1.2c0.1,0,0.3,0,0.4-0.1
		c6.8,19.9,13.6,39.9,20.5,59.8c0.2,0,0.3,0.1,0.4,0.1c9.8,0,19.7,0,29.5,0c0.7,0,0.9-0.4,1-0.9c1.8-5,3.5-10,5.3-15
		c2.5-7,4.9-13.9,7.3-20.9c2.7-7.5,5.3-15.1,8-22.6c0.1-0.2,0.2-0.4,0.3-0.6c0.1,0,0.2,0,0.3,0.1c0,19.9,0,39.8,0,59.8
		c8.4,0,16.6,0,24.9,0c0-0.5,0.1-0.8,0.1-1.2c0-25.3,0-50.6,0-75.9C122.5,54.7,122.5,54.7,121,54.7z"/>
	<path d="M309.6,68.2c-4.2-4.2-8.5-8.4-12.6-12.6c-0.6-0.6-1.3-0.9-2.1-0.9c-20.1,0-40.2,0-60.3,0c-0.9,0-1.6,0.3-2.2,0.9
		c-4.1,4.1-8.2,8.3-12.3,12.4c-0.7,0.7-1,1.4-1,2.4c0,15.7,0,31.4,0,47.2c0,0.9,0.3,1.6,0.9,2.2c4.2,4.2,8.3,8.3,12.4,12.6
		c0.8,0.8,1.5,1.1,2.6,1.1c9.9,0,19.7,0,29.6,0s19.9,0,29.8,0c1,0,1.7-0.2,2.5-1c4.1-4.3,8.4-8.5,12.6-12.7c0.6-0.6,0.9-1.2,0.9-2
		c0-15.8,0-31.7,0-47.5C310.5,69.4,310.2,68.8,309.6,68.2z M284.1,111.8c-1.3,1.2-2.5,2.6-3.8,3.8c-0.4,0.4-1.1,0.7-1.7,0.7
		c-9.2,0-18.4,0-27.6,0c-0.6,0-1.4-0.3-1.8-0.7c-1.4-1.2-2.7-2.5-3.9-3.9c-0.4-0.4-0.7-1.1-0.7-1.7c0-10.7,0-21.3,0-32
		c0-0.6,0.3-1.2,0.7-1.6c1.3-1.4,2.6-2.7,4-4c0.3-0.3,0.9-0.6,1.3-0.6c9.4,0,18.8,0,28.2,0c0.5,0,1.1,0.3,1.5,0.7
		c1.3,1.2,2.6,2.5,3.8,3.8c0.4,0.5,0.8,1.3,0.8,1.9c0.1,5.3,0,10.6,0,15.9s0,10.6,0,15.9C284.9,110.6,284.7,111.2,284.1,111.8z"/>
	<path d="M218.1,54.7c-7.6,0-15.3,0-22.9,0c-1,0-1.5,0.4-2,1.2c-6,10.6-12.1,21.2-18.1,31.8c-0.2,0.3-0.5,0.6-0.7,0.9
		c-0.3-0.3-0.6-0.5-0.7-0.9c-5.8-10.5-11.6-21.1-17.3-31.6c-0.6-1-1.2-1.4-2.4-1.4c-8.6,0.1-17.3,0-25.9,0c-0.4,0-0.8,0.1-1.4,0.1
		c0.3,0.5,0.4,0.8,0.6,1.1c10.8,17.7,21.5,35.3,32.3,53c0.4,0.7,0.7,1.6,0.7,2.4c0,7,0,14,0,20.9c0,0.4,0.1,0.7,0.1,1.1
		c8.5,0,16.8,0,25.3,0c0-0.4,0.1-0.8,0.1-1.2c0-6.9,0-13.8,0-20.7c0-0.8,0.3-1.7,0.7-2.5c1.5-2.7,3.2-5.2,4.8-7.9
		c8-13,15.9-26,23.9-39.1c1.4-2.3,2.8-4.6,4.4-7.2C218.8,54.8,218.4,54.7,218.1,54.7z"/>
	<path d="M536.2,124.8c-16.5,0-32.9,0-49.4,0c-1.5,0-1.6-0.1-1.6-1.6c0-7.8,0-15.5,0-23.3c0-1.8,0-1.8,1.8-1.8c15.2,0,30.5,0,45.7,0
		c1.4,0,1.5,0,1.5-1.5c0-1.8,0-3.6,0-5.4c0-1.4,0-1.4-1.5-1.4c-15.4,0-30.7,0-46.1,0c-1.4,0-1.5-0.1-1.5-1.5c0-7.9,0-15.7,0-23.6
		c0-1.8,0-1.8,1.8-1.8c16.5,0,32.9,0,49.4,0c1,0,1.4-0.3,1.3-1.3c-0.1-1.8,0-3.7,0-5.5c0-1.5,0-1.5-1.5-1.5c-19.8,0-39.6,0-59.5,0
		c-1.7,0-1.7,0-1.7,1.7c0,25.2,0,50.3,0,75.5c0,1.5,0,1.5,1.5,1.5c20,0,39.9,0,59.9,0c0.4,0,0.8,0,1.4,0c0-2.4,0-4.7,0-6.9
		C537.9,124.8,537.9,124.8,536.2,124.8z"/>
	<path d="M383.5,55.7c-0.7-0.7-1.5-1-2.5-1c-18.9,0-37.8,0-56.7,0c-1.6,0-1.6,0-1.6,1.6c0,25,0,50,0,75c0,0.4-0.1,0.9,0,1.3
		c0.1,0.3,0.4,0.7,0.7,0.7c3.1,0,6.2,0,9.4,0c0-0.5,0.1-1,0.1-1.5c0-9.5,0-18.9,0-28.4c0-1.5,0-1.5,1.5-1.5c15.6,0,31.1,0,46.7,0
		c0.9,0,1.6-0.3,2.2-0.9c3.4-3.4,6.9-6.8,10.2-10.2c0.4-0.4,0.7-1.2,0.8-1.8c0.1-7.1,0-14.2,0-21.3c0-0.9-0.3-1.5-0.9-2.1
		C390.1,62.4,386.8,59.1,383.5,55.7z M384,86.1c0,0.5-0.3,1.2-0.6,1.5c-1.9,2-3.8,4-5.8,5.9c-0.3,0.3-1,0.5-1.5,0.6
		c-14,0-28.1,0-42.1,0c-0.9,0-1.2-0.4-1.2-1.2c0-9.7,0-19.4,0-29.1c0-1,0.4-1.2,1.3-1.2c7,0,14,0,21.1,0c6.9,0,13.8,0,20.7,0
		c0.8,0,1.5,0.2,2,0.8c1.8,1.9,3.6,3.6,5.3,5.5c0.4,0.4,0.7,1.1,0.7,1.7C384.1,75.8,384.1,80.9,384,86.1z"/>
	<path d="M591.2,94.1c-0.7-0.8-0.6-1.3,0-2c10.2-12,20.3-24.1,30.4-36.2c0.3-0.3,0.5-0.7,0.8-1.2c-0.6,0-0.9-0.1-1.2-0.1
		c-3,0-5.9,0-8.9,0c-0.8,0-1.4,0.3-1.9,0.9C602,65.7,593.4,75.9,585,86c-0.6,0.7-1,0.9-1.6,0c-8.3-10.2-16.6-20.3-24.9-30.5
		c-0.4-0.5-1.1-0.8-1.7-0.8c-3-0.1-6.1,0-9.1,0c-0.3,0-0.7,0.1-1.1,0.1c0.3,0.4,0.4,0.6,0.5,0.8c9.9,12.1,19.7,24.1,29.6,36.2
		c1.2,1.4,1.2,1.4,0,2.8c-10.2,12.5-20.5,25.1-30.7,37.6c-0.2,0.3-0.3,0.6-0.6,1.1c3.4,0,6.5-0.1,9.6,0c1.3,0,2-0.3,2.9-1.3
		c8.4-10.5,17-21,25.4-31.5c0.8-1,0.9-1,1.7,0c6,7.2,12,14.4,18,21.7c2.8,3.3,5.6,6.7,8.3,10.1c0.6,0.8,1.2,1,2.1,1
		c2.6-0.1,5.1,0,7.7,0c0.8,0,1.7,0,2.5,0c0.1-0.1,0.1-0.2,0.2-0.4c-0.5-0.5-0.9-1.1-1.4-1.6C611.9,119,601.6,106.5,591.2,94.1z"/>
	<path d="M464.9,124.8c-15.2,0-30.4,0-45.6,0c-1.8,0-1.8,0-1.8-1.8c0-22.3,0-44.6,0-66.9c0-1.1-0.3-1.5-1.4-1.4
		c-2.4,0.1-4.8,0-7.2,0c-1.6,0-1.6,0-1.6,1.6c0,25.3,0,50.6,0,75.9c0,0.4,0,0.7,0.1,1.1c19.8,0,39.4,0,59.1,0c0-0.4,0.1-0.8,0.1-1.2
		c0-1.9,0-3.8,0-5.7C466.5,124.8,466.5,124.8,464.9,124.8z"/>
</g>
</svg>
