<?xml version="1.0" encoding="utf-8"?>
<!-- Generator: Adobe Illustrator 19.2.1, SVG Export Plug-In . SVG Version: 6.00 Build 0)  -->
<svg version="1.1" id="Capa_1" xmlns="http://www.w3.org/2000/svg" xmlns:xlink="http://www.w3.org/1999/xlink" x="0px" y="0px"
	 viewBox="0 0 150 150" style="enable-background:new 0 0 150 150;" xml:space="preserve">
<path d="M143,7v136H7V7H143 M150,0H0v150h150V0L150,0z"/>
<g>
	<g>
		<path class="st0" d="M130.1,39.8c-4.1,1.8-8.4,3-13,3.6c4.7-2.8,8.2-7.2,9.9-12.5c-4.4,2.6-9.2,4.5-14.4,5.5
			c-4.1-4.4-10-7.1-16.5-7.1c-12.5,0-22.6,10.1-22.6,22.6c0,1.8,0.2,3.5,0.6,5.1c-18.8-0.9-35.4-9.9-46.6-23.6
			c-1.9,3.3-3.1,7.2-3.1,11.4c0,7.8,4,14.8,10.1,18.8c-3.7-0.1-7.2-1.1-10.2-2.8V61c0,10.9,7.8,20.1,18.1,22.2
			c-1.9,0.5-3.9,0.8-6,0.8c-1.5,0-2.9-0.1-4.3-0.4c2.9,9,11.2,15.5,21.1,15.7c-7.7,6.1-17.5,9.7-28.1,9.7c-1.8,0-3.6-0.1-5.4-0.3
			c10,6.4,21.9,10.2,34.6,10.2c41.6,0,64.3-34.4,64.3-64.3l-0.1-2.9C123.2,48.4,127.1,44.4,130.1,39.8z"/>
	</g>
</g>
</svg>
